# xmcd CD database file
#
# Track frame offsets:
#	150
#	13982
#	29927
#	42840
#	59756
#	77091
#	93478
#	109966
#	123615
#	141156
#	160093
#	174496
#	188101
#	204202
#	223635
#	236502
#	252885
#	267967
#	282908
#	302647
#	317482
#
# Disc length: 4451 seconds
#
# Revision: 1
# Processed by: cddbd v1.5.2PL0 Copyright (c) Steve Scherf et al.
# Submitted via: CDex 1.50beta10
#
DISCID=35116115
DTITLE=Kenny Rogers - Greatest Hits
DYEAR=2015
DGENRE=Country
TTITLE0=All I Ever Need Is You
TTITLE1=Green Green Grass Of Home
TTITLE2=You Are So Beautiful
TTITLE3=Desperado
TTITLE4=We've Got Tonight
TTITLE5=You Decorated My Life
TTITLE6=Don't Fall In Love With A Dreamer
TTITLE7=What Are We Doin' In Love
TTITLE8=Lady
TTITLE9=She Believes In Me
TTITLE10=Love The World Away
TTITLE11=Every Time Two Fools Collide
TTITLE12=Lucille
TTITLE13=Coward Of The County
TTITLE14=Ruby, Don't Take Your Love To Town
TTITLE15=Love Will Turn You Around
TTITLE16=Just Dropped In
TTITLE17=Till I Can Make It On My Own
TTITLE18=Through The Years
TTITLE19=Share Your Love With Me
TTITLE20=Crazy
EXTD=YEAR: 2015
EXTT0=
EXTT1=
EXTT2=
EXTT3=
EXTT4=
EXTT5=
EXTT6=
EXTT7=
EXTT8=
EXTT9=
EXTT10=
EXTT11=
EXTT12=
EXTT13=
EXTT14=
EXTT15=
EXTT16=
EXTT17=
EXTT18=
EXTT19=
EXTT20=
PLAYORDER=
